<?xml version="1.0" encoding="UTF-8"?>
<svg width="296.78" height="257.13" version="1.1" viewBox="0 0 83.758 72.567" xmlns="http://www.w3.org/2000/svg" xmlns:cc="http://creativecommons.org/ns#" xmlns:dc="http://purl.org/dc/elements/1.1/" xmlns:rdf="http://www.w3.org/1999/02/22-rdf-syntax-ns#">
<g transform="translate(-64.556 -48.84)">
<g transform="translate(2.8343)" style="fill:#4c421c">
<path d="m94.079 58.395s8.2854 5.3454 9.0872 5.3454c0.8018 0 9.2876-4.2763 9.2876-4.6772 0-0.4009-0.20045-10.223-0.20045-10.223z"/>
<path d="m77.375 59.264 26.259 13.631v22.985l-26.259-13.631z"/>
<path d="m103.63 72.895 25.881-13.584v22.985l-25.881 13.584z"/>
</g>
<g transform="translate(33.867)" style="fill:#4c421c">
<path d="m36.595 119.7q1.2441 0 2.1728-0.6308 0.94621-0.63081 1.4018-1.6997h1.3843q-0.57824 1.6471-1.9099 2.5933-1.4193 1.0163-3.3468 1.0163-2.5407 0-4.1178-1.7347-1.4894-1.6646-1.4894-4.2054 0-2.5407 1.4894-4.2054 1.577-1.7347 4.1178-1.7347 1.9275 0 3.3468 1.0163 1.3317 0.94621 1.9099 2.5933h-1.3843q-0.45558-1.0689-1.4018-1.6997-0.92868-0.6308-2.1728-0.6308t-2.0676 0.36797q-0.82355 0.35044-1.3843 0.98125-1.139 1.2791-1.139 3.3117 0 2.0326 1.139 3.3117 1.1915 1.3492 3.4519 1.3492z"/>
<path d="m48.572 109.1q2.5933 0 4.2579 1.7347 1.6296 1.6821 1.6296 4.2054t-1.6296 4.2054q-1.6646 1.7347-4.2579 1.7347t-4.2579-1.7347q-1.6296-1.6822-1.6296-4.2054t1.6296-4.2054q1.6646-1.7347 4.2579-1.7347zm0 10.601q2.0676 0 3.3468-1.3492 1.2266-1.2967 1.2266-3.3117t-1.2266-3.3117q-1.2791-1.3492-3.3468-1.3492t-3.3468 1.3492q-1.2266 1.2966-1.2266 3.3117t1.2266 3.3117q1.2791 1.3492 3.3468 1.3492z"/>
<path d="m66.585 109.24v11.6h-1.5244l-7.1666-9.795v9.795h-1.3142v-11.6h1.5244l7.1666 9.76v-9.76z"/>
<path d="m70.728 110.5v4.0302h6.2905v1.2791h-6.2905v5.0289h-1.3142v-11.6h8.3757v1.2616z"/>
<path d="m88.798 112.3q0 1.9099-1.5595 2.6108 1.4368 0.4731 1.9625 1.7347 0.19275 0.49063 0.19275 1.139 0 2.1027-2.2253 2.8036-0.73594 0.24531-1.7347 0.24531h-5.502v-11.6h5.2041q1.8749 0 2.8561 1.0163 0.80603 0.80603 0.80603 2.0501zm-7.5521 2.1202h3.89q1.6121 0 2.1552-1.1039 0.19274-0.38549 0.19274-0.82355 0-0.45558-0.12265-0.7885-0.12266-0.35045-0.38549-0.61329-0.57824-0.61328-1.6997-0.61328h-4.0301zm4.328 5.1691q1.209 0 1.8574-0.49063 0.64832-0.50815 0.64832-1.4193 0-0.87612-0.6308-1.4368-0.70089-0.63081-2.0151-0.63081h-4.1878v3.9776z" stroke="#4c421c" stroke-width=".86122"/>
<path d="m96.685 109.1q2.5933 0 4.2579 1.7347 1.6296 1.6821 1.6296 4.2054t-1.6296 4.2054q-1.6646 1.7347-4.2579 1.7347t-4.2579-1.7347q-1.6296-1.6822-1.6296-4.2054t1.6296-4.2054q1.6646-1.7347 4.2579-1.7347zm0 10.601q2.0676 0 3.3468-1.3492 1.2266-1.2967 1.2266-3.3117t-1.2266-3.3117q-1.2791-1.3492-3.3468-1.3492t-3.3468 1.3492q-1.2266 1.2966-1.2266 3.3117t1.2266 3.3117q1.2791 1.3492 3.3468 1.3492z" stroke="#4c421c" stroke-width=".86122"/>
<path d="m108.94 114.84 4.6259 5.9926h-1.6646l-3.7673-4.9764-3.7498 4.9764h-1.6646l4.6259-5.9926-4.3105-5.6072h1.6646l3.4344 4.5558 3.4519-4.5558h1.6646z" stroke="#4c421c" stroke-width=".86122"/>
</g>
</g>
</svg>
